# xmcd CD database file
#
# Track frame offsets:
#	150
#	20772
#	40135
#	55567
#	75320
#	94125
#	111935
#	130270
#	141635
#	163352
#	181750
#	199647
#	218467
#	237025
#	259395
#
# Disc length: 3751 seconds
#
# Revision: 2
# Processed by: cddbd v1.5.2PL0 Copyright (c) Steve Scherf et al.
# Submitted via: CDex 1.70beta2
#
DISCID=cd0ea50f
DTITLE=Eartha - Sidebars
DYEAR=2002
DGENRE=CCM R&B 2001-2010
TTITLE0=I'm Still Standing
TTITLE1=Loving You
TTITLE2=Engaged
TTITLE3=Sidebar
TTITLE4=What If?
TTITLE5=Worryin' Bout Me
TTITLE6=Next To You
TTITLE7=Simple Things
TTITLE8=Lately
TTITLE9=Too Much For Me
TTITLE10=Heartbroken
TTITLE11=Impressions
TTITLE12=Logical Inference
TTITLE13=Don't Hinder Me
TTITLE14=He'll Hold You
EXTD=YEAR: 2002
EXTT0=
EXTT1=
EXTT2=
EXTT3=
EXTT4=
EXTT5=
EXTT6=
EXTT7=
EXTT8=
EXTT9=
EXTT10=
EXTT11=
EXTT12=
EXTT13=
EXTT14=
PLAYORDER=
